<?xml version="1.0" encoding="utf-8"?>
<!-- Svg Vector Icons : http://www.onlinewebfonts.com/icon -->
<!DOCTYPE svg PUBLIC "-//W3C//DTD SVG 1.1//EN" "http://www.w3.org/Graphics/SVG/1.1/DTD/svg11.dtd">
<svg version="1.1" xmlns="http://www.w3.org/2000/svg" xmlns:xlink="http://www.w3.org/1999/xlink" x="0px" y="0px" viewBox="0 0 1000 1000" enable-background="new 0 0 1000 1000" xml:space="preserve">
<metadata> Svg Vector Icons : http://www.onlinewebfonts.com/icon </metadata>
<g><path d="M948.7,373c0-199.9-175.4-363-448.7-363c-24.5,0-40.8,16.3-40.8,40.8s16.3,40.8,40.8,40.8c179.5,0,379.4,69.4,379.4,289.6c0,102-12.2,130.5-24.5,167.2c-4.1-73.4-65.3-118.3-65.3-118.3s61.2,199.9,0,252.9c-8.1,8.2-32.6,20.4-48.9,28.6c-44.9,16.3-102,61.2-102,126.4c0,53-8.2,73.4-40.8,65.3c-4.1,24.5-40.8,24.5-44.9,4.1c-8.2,20.4-40.8,20.4-48.9,0c0,0-16.3,61.2,0,73.4c12.2,12.2,36.7,12.2,53,0c16.3,12.2,40.8,8.2,53-8.2c12.2,4.1,28.6,0,40.8-16.3c40.8-24.5,61.2-53,61.2-114.2c0-53.1,114.2-65.3,146.8-102c16.3-20.4,24.5-53.1,20.4-89.7C895.7,605.5,948.7,487.3,948.7,373z"/><path d="M51.3,373C51.3,173.2,226.7,10,500,10c24.5,0,40.8,16.3,40.8,40.8S524.5,91.6,500,91.6c-179.5,0-379.4,69.4-379.4,289.6c0,102,12.2,130.5,24.5,167.2c4.1-73.4,65.3-118.3,65.3-118.3s-61.2,199.9,0,252.9c8.2,8.2,32.6,20.4,49,28.6c44.9,16.3,102,61.2,102,126.4c0,53,8.1,73.4,40.8,65.3c4.1,24.5,40.8,24.5,44.9,4.1c8.1,20.4,40.8,20.4,48.9,0c0,0,16.3,61.2,0,73.4c-12.2,12.2-36.7,12.2-53,0c-16.3,12.2-40.8,8.2-53-8.2c-12.2,4.1-28.5,0-40.8-16.3c-40.8-24.5-61.2-53-61.2-114.2c0-53.1-114.2-65.3-146.8-102c-16.3-20.4-24.5-53.1-20.4-89.7C104.3,605.5,51.3,487.3,51.3,373z"/><path d="M500,654.5c-24.5,8.2-65.3,69.4-65.3,102c0,16.3,12.2,24.5,24.5,24.5c20.4,0,36.7-32.7,36.7-49c4.1,16.3,16.3,49,36.7,49c12.2,0,24.5-8.2,24.5-24.5C565.3,727.9,524.5,662.7,500,654.5z"/><path d="M732.5,528.1c-20.4-53-73.4-81.6-134.6-61.2c-49,16.3-69.4,77.5-53.1,118.3c20.4,65.3,85.7,93.9,155,69.4C732.5,646.3,761.1,609.6,732.5,528.1z"/><path d="M267.5,528.1c20.4-53,73.4-81.6,134.6-61.2c48.9,16.3,69.3,77.5,53,118.3c-20.4,65.3-85.7,93.9-155,69.4C267.5,646.3,238.9,609.6,267.5,528.1z"/></g>
</svg>